HIERARCHY
ROOT Hips
{
	OFFSET -0.001795 -0.223333 0.028219
	CHANNELS 6 Xposition Yposition Zposition Zrotation Yrotation Xrotation 
	JOINT LeftUpLeg
	{
		OFFSET 0.069520 -0.091406 -0.006815
		CHANNELS 3 Zrotation Yrotation Xrotation
		JOINT LeftLeg
		{
			OFFSET 0.034277 -0.375199 -0.004496
			CHANNELS 3 Zrotation Yrotation Xrotation
			JOINT LeftFoot
			{
				OFFSET -0.013596 -0.397961 -0.043693
				CHANNELS 3 Zrotation Yrotation Xrotation
				JOINT LeftToe
				{
					OFFSET 0.026358 -0.055791 0.119288
					CHANNELS 3 Zrotation Yrotation Xrotation
					End Site
					{
						OFFSET 0.000000 0.000000 0.000000
					}
				}
			}
		}
	}
	JOINT RightUpLeg
	{
		OFFSET -0.067670 -0.090522 -0.004320
		CHANNELS 3 Zrotation Yrotation Xrotation
		JOINT RightLeg
		{
			OFFSET -0.038290 -0.382569 -0.008850
			CHANNELS 3 Zrotation Yrotation Xrotation
			JOINT RightFoot
			{
				OFFSET 0.015774 -0.398415 -0.042312
				CHANNELS 3 Zrotation Yrotation Xrotation
				JOINT RightToe
				{
					OFFSET -0.025372 -0.048144 0.123348
					CHANNELS 3 Zrotation Yrotation Xrotation
					End Site
					{
						OFFSET 0.000000 0.000000 0.000000
					}
				}
			}
		}
	}
	JOINT Spine
	{
		OFFSET -0.002533 0.108963 -0.026696
		CHANNELS 3 Zrotation Yrotation Xrotation
		JOINT Spine1
		{
			OFFSET 0.005487 0.135180 0.001092
			CHANNELS 3 Zrotation Yrotation Xrotation
			JOINT Spine2
			{
				OFFSET 0.001457 0.052922 0.025425
				CHANNELS 3 Zrotation Yrotation Xrotation
				JOINT Neck
				{
					OFFSET -0.002778 0.213870 -0.042857
					CHANNELS 3 Zrotation Yrotation Xrotation
					JOINT Head
					{
						OFFSET 0.005152 0.064970 0.051349
						CHANNELS 3 Zrotation Yrotation Xrotation
						End Site
						{
							OFFSET 0.000000 0.000000 0.000000
						}
					}
				}
				JOINT LeftShoulder
				{
					OFFSET 0.078845 0.121749 -0.034090
					CHANNELS 3 Zrotation Yrotation Xrotation
					JOINT LeftArm
					{
						OFFSET 0.090977 0.030469 -0.008868
						CHANNELS 3 Zrotation Yrotation Xrotation
						JOINT LeftForeArm
						{
							OFFSET 0.259612 -0.012772 -0.027456
							CHANNELS 3 Zrotation Yrotation Xrotation
							JOINT LeftHand
							{
								OFFSET 0.249234 0.008986 -0.001171
								CHANNELS 3 Zrotation Yrotation Xrotation
								End Site
								{
									OFFSET 0.000000 0.000000 0.000000
								}
							}
						}
					}
				}
				JOINT RightShoulder
				{
					OFFSET -0.081759 0.118833 -0.038615
					CHANNELS 3 Zrotation Yrotation Xrotation
					JOINT RightArm
					{
						OFFSET -0.096012 0.032551 -0.009143
						CHANNELS 3 Zrotation Yrotation Xrotation
						JOINT RightForeArm
						{
							OFFSET -0.253742 -0.013329 -0.021401
							CHANNELS 3 Zrotation Yrotation Xrotation
							JOINT RightHand
							{
								OFFSET -0.255298 0.007772 -0.005559
								CHANNELS 3 Zrotation Yrotation Xrotation
								End Site
								{
									OFFSET 0.000000 0.000000 0.000000
								}
							}
						}
					}
				}
			}
		}
	}
}
MOTION
Frames: 7
Frame Time: 0.050000
0.000000 0.764047 0.000000 -1.948578 -4.625884 33.984025 5.009007 -1.059368 -82.016675 -7.898418 4.534200 67.253632 7.610485 15.412936 -8.522987 0.000000 0.000000 0.000000 -14.821143 0.516110 -81.659310 15.255274 -9.464789 66.286086 -6.973998 -18.491827 -9.235275 0.000000 0.000000 0.000000 2.362343 -2.834532 59.868244 -3.068622 1.138329 -31.458721 -1.333764 4.932110 32.522505 13.957844 -4.109498 -32.619217 0.000000 0.000000 0.000000 -13.767140 5.158114 -4.435243 -58.333283 1.532748 -10.022052 2.138344 -50.286363 1.773053 0.000000 0.000000 0.000000 17.296679 -11.217482 -7.034413 63.772507 -2.248605 -9.535001 3.393794 60.733219 6.918366 0.000000 0.000000 0.000000 
-0.001009 0.760812 -0.000822 -2.421842 -5.810981 35.683996 4.524727 -0.587138 -83.715234 -5.844197 2.973856 69.482570 7.191002 14.205190 -8.639944 0.000000 0.000000 0.000000 -14.729261 1.407490 -84.910379 15.524912 -9.855399 67.862022 -6.607850 -17.430939 -7.910996 0.000000 0.000000 0.000000 1.559998 -1.806477 61.107142 -3.077896 1.140378 -35.375594 -0.766420 5.718302 34.691944 15.011702 -3.803734 -36.317745 0.000000 0.000000 0.000000 -14.992760 1.974473 -2.906147 -56.309501 3.008173 -10.367276 3.679917 -60.323505 0.965624 0.000000 0.000000 0.000000 19.630500 -13.997210 -9.119249 62.412850 -4.306738 -10.439863 4.828713 66.937295 8.921656 0.000000 0.000000 0.000000 
-0.001904 0.758345 -0.000500 -0.590770 -5.941714 34.043651 4.360292 -0.952546 -81.473509 -7.466436 4.584671 69.837777 7.626317 14.476963 -14.094683 0.000000 0.000000 0.000000 -15.071366 0.964926 -82.972016 14.122717 -8.788981 69.382598 -7.125426 -18.701460 -12.535952 0.000000 0.000000 0.000000 2.177048 -2.242598 61.444573 -3.842259 1.231722 -33.764454 -1.332478 4.262069 33.637449 14.137947 -4.344057 -32.748990 0.000000 0.000000 0.000000 -15.265144 1.172485 -2.050975 -57.241537 4.343682 -11.121581 5.620573 -62.910993 0.189613 0.000000 0.000000 0.000000 19.715592 -13.867031 -9.424643 61.096899 -3.224403 -9.770872 11.729381 66.318103 12.903019 0.000000 0.000000 0.000000 
-0.002593 0.759452 0.000293 -0.827239 -6.596905 33.828099 3.798061 -1.028865 -81.303293 -6.340676 3.659843 69.751572 6.717882 11.747908 -14.151299 0.000000 0.000000 0.000000 -14.425621 1.856124 -83.809804 14.003085 -8.670261 70.186941 -6.047056 -14.844395 -11.130054 0.000000 0.000000 0.000000 2.274976 -2.084298 61.656901 -4.995416 1.337968 -34.458722 -1.642127 2.906319 33.540639 14.893335 -4.336206 -35.453412 0.000000 0.000000 0.000000 -17.601486 1.531268 -2.040008 -56.724428 3.880992 -10.835935 9.115550 -65.797650 -1.467842 0.000000 0.000000 0.000000 20.575797 -13.899296 -10.124830 59.986700 -4.313255 -10.140235 12.113419 68.928510 13.110238 0.000000 0.000000 0.000000 
-0.003346 0.758015 0.001739 -0.402567 -6.529544 33.274592 3.596958 -1.307080 -80.389102 -7.255228 4.451240 69.356398 7.668642 14.521493 -14.535322 0.000000 0.000000 0.000000 -14.573061 1.619912 -82.365298 13.650839 -8.264430 69.680971 -5.985810 -14.434321 -12.091400 0.000000 0.000000 0.000000 2.992108 -2.632342 60.472203 -5.580075 1.402617 -34.009147 -2.350512 2.246806 33.413920 14.928960 -4.851972 -33.617836 0.000000 0.000000 0.000000 -18.332834 0.636340 -1.272373 -57.614073 2.974713 -10.651290 12.473364 -70.445757 -3.456100 0.000000 0.000000 0.000000 21.497007 -14.683229 -11.136860 59.284237 -4.472320 -10.115882 21.044641 68.251701 18.767838 0.000000 0.000000 0.000000 
-0.003910 0.757781 0.003182 -1.186540 -7.304019 32.497510 4.010945 -0.462421 -79.653763 -7.579505 5.064730 70.318083 7.449776 13.753479 -14.749092 0.000000 0.000000 0.000000 -13.718366 2.801253 -81.612870 13.300376 -7.658921 69.626877 -6.014892 -14.190473 -13.614164 0.000000 0.000000 0.000000 3.288067 -2.497111 61.147071 -6.534912 1.489509 -34.654813 -1.928872 1.793784 32.650106 14.767762 -5.032334 -32.589320 0.000000 0.000000 0.000000 -18.985060 2.063032 -2.051893 -56.731365 2.642408 -10.254081 4.417470 -70.636909 2.410673 0.000000 0.000000 0.000000 20.956090 -15.085830 -11.413181 59.864643 -5.633366 -10.647676 21.721285 68.823113 19.091511 0.000000 0.000000 0.000000 
-0.004340 0.758719 0.004088 -1.115723 -7.191579 32.380184 4.131705 -0.444314 -79.032194 -7.799199 5.253375 69.783305 7.779953 14.788886 -14.607670 0.000000 0.000000 0.000000 -13.882279 2.591133 -80.870871 13.736810 -7.961141 69.088881 -6.307430 -15.381175 -13.674712 0.000000 0.000000 0.000000 3.726640 -2.824322 60.447318 -6.510922 1.489204 -34.517516 -2.351462 1.400393 31.755045 14.910640 -5.187628 -32.136113 0.000000 0.000000 0.000000 -19.583385 3.348417 -2.798311 -56.027486 4.023136 -10.576955 -4.955894 -73.255093 9.452664 0.000000 0.000000 0.000000 20.476955 -15.623806 -11.780561 59.538209 -6.994266 -11.080298 27.848350 67.803871 22.555251 0.000000 0.000000 0.000000 
